<svg xmlns="http://www.w3.org/2000/svg" version="1.1" xmlns:xlink="http://www.w3.org/1999/xlink" width="1500" height="1500" viewBox="0 0 1500 1500"><rect width="1500" height="1500" fill="#212024"></rect><g transform="matrix(0.6666666666666666,0,0,0.6666666666666666,249.39393939393938,657.643626249744)"><svg viewBox="0 0 396 73" data-background-color="#212024" preserveAspectRatio="xMidYMid meet" height="276" width="1500" xmlns="http://www.w3.org/2000/svg" xmlns:xlink="http://www.w3.org/1999/xlink"><g id="tight-bounds" transform="matrix(1,0,0,1,0.2400000000000091,0.14138741178635428)"><svg viewBox="0 0 395.52 72.71722517642728" height="72.71722517642728" width="395.52"><g><svg viewBox="0 0 557.6075577773113 102.5173805091283" height="72.71722517642728" width="395.52"><g><rect width="9.199127534576993" height="102.5173805091283" x="128.8069445501244" y="0" fill="#00ffbb" opacity="1" stroke-width="0" stroke="transparent" fill-opacity="1" class="rect-qz-0" data-fill-palette-color="primary" rx="1%" id="qz-0" data-palette-color="#00ffbb"></rect></g><g transform="matrix(1,0,0,1,162.08755777731133,0.25501835947543583)"><svg viewBox="0 0 395.5199999999999 102.00734379017743" height="102.00734379017743" width="395.5199999999999"><g id="textblocktransform"><svg viewBox="0 0 395.5199999999999 102.00734379017743" height="102.00734379017743" width="395.5199999999999" id="textblock"><g><svg viewBox="0 0 395.5199999999999 102.00734379017743" height="102.00734379017743" width="395.5199999999999"><g transform="matrix(1,0,0,1,0,0)"><svg width="395.5199999999999" viewBox="1.75 -37.1 194.43 50.150000000000006" height="102.00734379017743" data-palette-color="#00ffbb"><path d="M13.85 1.15Q11.35 1.15 8.8 0.08 6.25-1 4.33-2.9 2.4-4.8 1.75-7.2L1.75-7.2 4.3-8.2Q5.25-5.15 8.03-3.38 10.8-1.6 13.85-1.6L13.85-1.6Q16.15-1.6 18.05-2.58 19.95-3.55 21.05-5.33 22.15-7.1 22.15-9.35L22.15-9.35Q22.15-11.75 20.83-13.3 19.5-14.85 16.35-16.4L16.35-16.4Q12.1-18.45 9.9-19.75 7.7-21.05 6.3-22.83 4.9-24.6 4.9-27.05L4.9-27.05Q4.9-29.45 6.2-31.3 7.5-33.15 9.68-34.15 11.85-35.15 14.35-35.15L14.35-35.15Q16.45-35.15 18.28-34.38 20.1-33.6 21.13-32.23 22.15-30.85 22.05-29.15L22.05-29.15 19.25-29.3Q19.25-30.75 17.68-31.58 16.1-32.4 14.25-32.4L14.25-32.4Q11.65-32.4 9.78-30.9 7.9-29.4 7.9-27.2L7.9-27.2Q7.9-25.5 9.05-24.15 10.2-22.8 11.78-21.88 13.35-20.95 15.75-19.85L15.75-19.85Q16.25-19.6 16.8-19.35 17.35-19.1 17.85-18.8L17.85-18.8Q21.8-16.7 23.48-14.53 25.15-12.35 25.15-9.3L25.15-9.3Q25.15-6.25 23.58-3.88 22-1.5 19.4-0.18 16.8 1.15 13.85 1.15L13.85 1.15ZM32.6-11.45Q32.65-7.95 34.3-5.05 35.95-2.15 40.9-2.15L40.9-2.15Q43.05-2.15 44.87-2.7 46.7-3.25 48.85-4.5L48.85-4.5 50.15-2.4Q48.15-1.05 45.7-0.25 43.25 0.55 40.7 0.55L40.7 0.55Q35.45 0.55 32.52-2.83 29.6-6.2 29.6-11.7L29.6-11.7Q29.6-15.25 30.9-18.38 32.2-21.5 34.75-23.45 37.3-25.4 40.75-25.4L40.75-25.4Q43.65-25.4 46.02-24.03 48.4-22.65 49.77-20.28 51.15-17.9 51.15-15L51.15-15Q51.15-14.2 51.1-13.58 51.05-12.95 51-12.5L51-12.5 50.9-11.45 32.6-11.45ZM32.75-14.15L48.1-14.15Q48.15-14.5 48.15-15.15L48.15-15.15Q48.15-17.25 47.15-18.98 46.15-20.7 44.45-21.7 42.75-22.7 40.7-22.7L40.7-22.7Q37.65-22.7 35.47-20.48 33.3-18.25 32.75-14.15L32.75-14.15ZM74.05 0.4Q73.1-0.35 72.52-1.25 71.95-2.15 71.45-3.6L71.45-3.6Q70.45-1.65 68.47-0.58 66.5 0.5 63.7 0.5L63.7 0.5Q59.75 0.5 57.37-1.6 55-3.7 55-7.3L55-7.3Q55-11.1 57.67-13.2 60.35-15.3 65.25-15.3L65.25-15.3 71.05-15.3 71.05-17.1Q71.05-20.1 69.75-21.55 68.45-23 65.75-23L65.75-23Q63.75-23 61.65-22.28 59.55-21.55 57.9-20.3L57.9-20.3 56.55-22.5Q58.4-24.05 60.82-24.88 63.25-25.7 65.8-25.7L65.8-25.7Q69.85-25.7 71.95-23.63 74.05-21.55 74.05-17.65L74.05-17.65 74.05-7.2Q74.05-3.35 76-1.25L76-1.25 74.05 0.4ZM63.75-2.2Q67.1-2.2 69.07-4.05 71.05-5.9 71.05-8.85L71.05-8.85 71.05-12.6 65.95-12.6Q61.7-12.6 59.85-11.38 58-10.15 58-7.35L58-7.35Q58-4.85 59.5-3.53 61-2.2 63.75-2.2L63.75-2.2ZM91.59-25.5Q93.09-25.5 94.59-25.05L94.59-25.05 94.59-22.25Q93.14-22.6 91.69-22.6L91.69-22.6Q89.14-22.6 87.54-21.35L87.54-21.35Q85.94-20.1 84.69-17.8L84.69-17.8 84.69 0 81.69 0 81.69-17.5Q81.69-21.45 79.59-23.3L79.59-23.3 81.59-25.3Q82.49-24.75 83.29-23.65 84.09-22.55 84.44-21.2L84.44-21.2Q85.84-23.5 87.24-24.35L87.24-24.35Q88.99-25.5 91.59-25.5L91.59-25.5ZM108.64 0.35Q103.19 0.35 100.07-3 96.94-6.35 96.94-12.15L96.94-12.15Q96.94-16.15 98.44-19.23 99.94-22.3 102.69-23.98 105.44-25.65 109.04-25.65L109.04-25.65Q111.04-25.65 112.77-24.93 114.49-24.2 116.34-22.6L116.34-22.6 114.34-20.8Q113.19-21.95 111.97-22.45 110.74-22.95 109.04-22.95L109.04-22.95Q104.89-22.95 102.42-19.98 99.94-17 99.94-12L99.94-12Q99.94-7.4 102.27-4.88 104.59-2.35 108.89-2.35L108.89-2.35Q112.54-2.35 116.79-4.7L116.79-4.7 118.09-2.6Q116.04-1.2 113.57-0.43 111.09 0.35 108.64 0.35L108.64 0.35ZM122.99-36.3L125.99-36.3 125.99-21.35Q127.54-23.5 129.59-24.5 131.64-25.5 134.34-25.5L134.34-25.5Q138.39-25.5 140.41-23.38 142.44-21.25 142.44-17.35L142.44-17.35 142.44 0 139.44 0 139.44-16.8Q139.44-19.55 138.09-21.13 136.74-22.7 134.04-22.7L134.04-22.7Q131.64-22.7 129.74-21.45 127.84-20.2 125.99-17.7L125.99-17.7 125.99 0 122.99 0 122.99-36.3ZM149.99 0L149.99-25.05 152.99-25.05 152.99 0 149.99 0ZM151.39-28.25Q150.54-28.25 149.91-28.88 149.29-29.5 149.29-30.35L149.29-30.35Q149.29-31.25 149.91-31.88 150.54-32.5 151.39-32.5L151.39-32.5Q152.29-32.5 152.91-31.88 153.54-31.25 153.54-30.35L153.54-30.35Q153.54-29.5 152.91-28.88 152.29-28.25 151.39-28.25L151.39-28.25ZM172.78-36.55Q174.08-36.05 175.03-35L175.03-35 172.88-33.15Q171.78-34.5 169.58-34.5L169.58-34.5Q166.48-34.5 165.46-31.98 164.43-29.45 164.43-25.25L164.43-25.25 164.43-25 171.83-25 171.83-22.4 164.43-22.4 164.43 0 161.43 0 161.43-22.4 158.88-22.4 158.88-25 161.43-25 161.43-25.75Q161.43-31.1 163.21-34.1 164.98-37.1 169.48-37.1L169.48-37.1Q171.43-37.1 172.78-36.55L172.78-36.55ZM177.08 10.6Q179.88 10.6 181.33 9.55L181.33 9.55Q182.03 9.1 182.58 8.33 183.13 7.55 183.43 6.6L183.43 6.6 185.33 0.65 174.38-25.15 177.53-25.15 186.53-3.05 193.08-25.15 196.18-25.15 186.03 7.5Q185.13 10.2 183.08 11.6L183.08 11.6Q180.93 13.05 177.43 13.05L177.43 13.05 177.08 10.6Z" opacity="1" transform="matrix(1,0,0,1,0,0)" fill="#00ffbb" classname="wordmark-text-0" data-fill-palette-color="primary" id="text-0"></path></svg></g></svg></g></svg></g></svg></g><g transform="matrix(1,0,0,1,0,0.25501835947543583)"><svg viewBox="0 0 104.72545885751447 102.00734379017743" height="102.00734379017743" width="104.72545885751447"><g><svg xmlns="http://www.w3.org/2000/svg" xmlns:xlink="http://www.w3.org/1999/xlink" version="1.1" x="0" y="0" viewBox="2 2.5 19.29325 18.7925" enable-background="new 0 0 24 24" xml:space="preserve" height="102.00734379017743" width="104.72545885751447" class="icon-icon-0" data-fill-palette-color="accent" id="icon-0"><path d="M9 2.5c-3.859 0-7 3.14-7 7s3.141 7 7 7 7-3.14 7-7S12.859 2.5 9 2.5zM9 14.5c-2.757 0-5-2.243-5-5s2.243-5 5-5 5 2.243 5 5S11.757 14.5 9 14.5z" fill="#00ffbb" data-fill-palette-color="accent"></path><path d="M15.707 14.293l-1.414 1.414L19.586 21c0.391 0.39 1.024 0.39 1.414 0 0.391-0.391 0.391-1.024 0-1.414L15.707 14.293z" fill="#00ffbb" data-fill-palette-color="accent"></path></svg></g></svg></g></svg></g><defs></defs></svg><rect width="395.52" height="72.71722517642728" fill="none" stroke="none" visibility="hidden"></rect></g></svg></g></svg>